<?xml version="1.0" encoding="UTF-8"?>
<svg width="128px" height="128px" viewBox="0 0 128 128" version="1.1" xmlns="http://www.w3.org/2000/svg" xmlns:xlink="http://www.w3.org/1999/xlink">
    <!-- Generator: Sketch 43.1 (39012) - http://www.bohemiancoding.com/sketch -->
    <title>tiddlyfox-enabled</title>
    <desc>Created with Sketch.</desc>
    <defs>
        <polygon id="path-1" points="64 110.036667 47.4355811 125.819253 40.9816667 103.868923 18.745166 109.254834 24.1310772 87.0183333 2.18074712 80.5644189 17.9633333 64 2.18074712 47.4355811 24.1310772 40.9816667 18.745166 18.745166 40.9816667 24.1310772 47.4355811 2.18074712 64 17.9633333 80.5644189 2.18074712 87.0183333 24.1310772 109.254834 18.745166 103.868923 40.9816667 125.819253 47.4355811 110.036667 64 125.819253 80.5644189 103.868923 87.0183333 109.254834 109.254834 87.0183333 103.868923 80.5644189 125.819253"></polygon>
        <filter x="-4.7%" y="-4.7%" width="109.4%" height="109.4%" filterUnits="objectBoundingBox" id="filter-2">
            <feOffset dx="-2" dy="-2" in="SourceAlpha" result="shadowOffsetOuter1"></feOffset>
            <feGaussianBlur stdDeviation="1" in="shadowOffsetOuter1" result="shadowBlurOuter1"></feGaussianBlur>
            <feColorMatrix values="0 0 0 0 0   0 0 0 0 0   0 0 0 0 0  0 0 0 0.5 0" type="matrix" in="shadowBlurOuter1" result="shadowMatrixOuter1"></feColorMatrix>
            <feOffset dx="2" dy="2" in="SourceAlpha" result="shadowOffsetOuter2"></feOffset>
            <feGaussianBlur stdDeviation="1" in="shadowOffsetOuter2" result="shadowBlurOuter2"></feGaussianBlur>
            <feColorMatrix values="0 0 0 0 1   0 0 0 0 1   0 0 0 0 1  0 0 0 0.5 0" type="matrix" in="shadowBlurOuter2" result="shadowMatrixOuter2"></feColorMatrix>
            <feMerge>
                <feMergeNode in="shadowMatrixOuter1"></feMergeNode>
                <feMergeNode in="shadowMatrixOuter2"></feMergeNode>
            </feMerge>
        </filter>
        <path d="M48.9632085,93.5326495 L26.345828,70.915269 C23.2211757,67.7906166 23.2166154,62.7207366 26.3408098,59.5965422 C29.458647,56.478705 34.5325707,56.4745946 37.6595365,59.6015605 L54.625081,76.567105 L109.843536,21.3486496 C112.97315,18.2190364 118.039992,18.2175139 121.164186,21.3417082 C124.282023,24.4595455 124.285273,29.5343302 121.157245,32.6623581 L60.2888766,93.5307263 C58.7229133,95.0966896 56.6719265,95.8794737 54.6219771,95.8793759 C52.5791074,95.8776813 50.5275278,95.0969688 48.9632085,93.5326495 Z" id="path-3"></path>
    </defs>
    <g id="Page-1" stroke="none" stroke-width="1" fill="none" fill-rule="evenodd">
        <g id="Star-Copy">
            <use fill="black" fill-opacity="1" filter="url(#filter-2)" xlink:href="#path-1"></use>
            <use fill="#37FF31" fill-rule="evenodd" xlink:href="#path-1"></use>
        </g>
        <g id="Rectangle-146-Copy">
            <use fill="#000000" fill-rule="evenodd" xlink:href="#path-3"></use>
            <path stroke="#FFFFFF" stroke-width="4" d="M54.625081,73.7386778 L39.0737501,58.1873469 C35.1679665,54.2815634 28.8277126,54.2812122 24.9265962,58.1823287 C21.0217811,62.0871438 21.0254843,68.4233524 24.9316144,72.3294825 L47.5489949,94.946863 L47.5489949,94.946863 C49.4487367,96.8466048 51.9895355,97.8771929 54.620318,97.8793753 C57.2580287,97.8795017 59.799833,96.8481971 61.7030902,94.9449399 L122.571458,34.0765717 C126.478196,30.1698342 126.479624,23.8287187 122.5784,19.9274947 C118.672283,16.0213776 112.33911,16.0246486 108.429323,19.9344361 L54.625081,73.7386778 Z"></path>
        </g>
    </g>
</svg>