<?xml version="1.0" encoding="UTF-8" standalone="no"?>
<svg width="128px" height="128px" viewBox="0 0 128 128" version="1.1" xmlns="http://www.w3.org/2000/svg" xmlns:xlink="http://www.w3.org/1999/xlink" xmlns:sketch="http://www.bohemiancoding.com/sketch/ns">
    <!-- Generator: Sketch 3.3.2 (12043) - http://www.bohemiancoding.com/sketch -->
    <title>tiddlyfox-enabled</title>
    <desc>Created with Sketch.</desc>
    <defs>
        <radialGradient cx="61.8786156%" cy="33.5497234%" fx="61.8786156%" fy="33.5497234%" r="59.7512718%" id="radialGradient-1">
            <stop stop-color="#DEF2E2" offset="0%"></stop>
            <stop stop-color="#84C382" offset="56.4672353%"></stop>
            <stop stop-color="#2B682F" offset="100%"></stop>
        </radialGradient>
    </defs>
    <g id="Page-1" stroke="none" stroke-width="1" fill="none" fill-rule="evenodd" sketch:type="MSPage">
        <circle id="Oval-237-Copy" fill="url(#radialGradient-1)" sketch:type="MSShapeGroup" cx="64" cy="96" r="32"></circle>
        <path d="M97.9496692,77.9548872 C92.9059665,77.8122593 90.6875144,77.8245252 88.1188491,73.5989642 L86.1168725,73.6563408 C83.7866325,73.5528209 84.7577561,73.5997438 83.2031472,73.5223152 C80.6039042,73.4211343 81.0202825,70.9504931 80.5630098,69.6451493 C79.8315288,65.214121 81.5309821,60.760193 81.4773702,56.3282911 C81.4583892,54.7550708 79.2330323,49.1864399 78.4380084,47.1955364 C75.9457077,47.6649586 73.4398867,47.7544576 70.9114408,47.8804963 C65.0833594,47.8662148 59.2948041,47.1522562 53.5480997,46.2456047 C52.4282115,50.8735008 49.0994686,57.3510048 51.8509376,62.0543713 C55.190709,66.9194556 57.5343988,68.2673025 61.1671744,68.5606445 C64.7999109,68.8537491 65.620208,72.956729 64.7413178,74.4221714 C63.9633956,75.4349529 62.5961494,75.6187906 61.4345065,75.8641562 L59.1109081,75.9734075 C57.2824298,75.9118718 55.6481068,75.4180038 54.0188432,74.6563323 C51.297983,73.1369214 48.4878375,69.9781339 46.3999536,67.7103396 C46.8860289,68.6159402 47.17596,70.3838457 46.7350826,71.2065523 C45.5006383,72.9559494 40.1616533,72.945261 37.7165888,71.858172 C34.9390358,70.6234903 28.2273881,61.9541708 27.1897058,55.4612379 C29.9503213,50.2386424 33.9719941,45.6894449 36.0066806,40.0028196 C31.5716062,37.1718146 29.1962413,32.5631754 29.5046009,27.3427519 L29.6159013,26.7384514 C25.2519888,27.5557056 27.5150132,27.2516414 22.8205864,27.6068945 C7.87035746,27.5611345 -5.27716868,17.4205292 2.12600609,1.66023024 C2.60743517,0.726976477 3.06541011,-0.121511985 3.88152948,0.283704408 C4.53655595,0.608853269 4.44246487,1.91315926 4.11298875,3.35956909 C-0.118769482,22.191001 20.563556,22.3351335 33.2773491,18.8504749 C34.5391832,18.5045569 37.0487862,16.1748123 38.7872364,15.4024785 C41.6288901,14.140128 44.7132152,13.6279602 47.774162,13.2589158 C55.387338,12.3910855 64.5374426,16.4032027 69.1865865,16.5342087 C73.8357852,16.6652096 80.4494417,15.4205697 84.5092929,15.6826288 C87.4550607,15.8174601 90.3476207,16.3493775 93.1898191,17.1070882 C95.0295396,8.13947768 95.1596047,1.53011124 99.5209106,0 C102.080562,0.404430216 104.052939,3.89385415 105.51289,5.7582626 C108.492184,5.63986925 111.321628,6.39450561 114.134886,7.2320413 C119.228129,6.50897615 123.502113,3.64770633 128,1.42189622 C123.442167,5.14417597 122.823873,11.199963 123.344673,16.8000019 C123.538352,19.7058984 122.717533,22.8608528 121.702809,25.836105 C119.803917,30.6835205 116.13673,35.7930421 111.880471,35.5309804 C110.271442,35.4800653 109.336719,34.5686394 108.140832,33.5955761 C107.908844,35.5665292 106.99707,37.3252144 106.118133,39.0683403 C104.088404,42.9332115 98.7842999,44.6363506 93.8729952,48.7632366 C88.9620242,52.8901851 95.4444999,67.6292525 97.01626,70.3147664 C98.5877647,73.0005359 102.974868,73.983062 101.272527,76.4070331 C100.751737,77.2075624 99.9554254,77.493877 99.104376,77.8044314 L97.9496692,77.9548872 Z M41.4271346,65.7236733 L42.2059739,65.919766 C43.1846562,65.5460593 45.1519363,66.123633 46.1954887,66.406015 C44.2738794,64.5879531 41.3788339,61.9181636 39.2930536,60.2350534 C38.6084353,58.197387 38.9005509,56.1469772 39.0478475,54.0668235 L39.0773922,53.8947368 C38.2552294,55.5599524 37.2118765,57.178646 36.6510986,58.9314588 C35.9948637,61.2961539 39.5676825,63.8475379 40.9530758,65.3097759 L41.4271346,65.7236733 Z" id="Path-copy-9" fill="#4D4D4D" sketch:type="MSShapeGroup"></path>
    </g>
</svg>