<?xml version="1.0" encoding="UTF-8"?>
<svg width="128px" height="128px" viewBox="0 0 128 128" version="1.1" xmlns="http://www.w3.org/2000/svg" xmlns:xlink="http://www.w3.org/1999/xlink">
    <!-- Generator: Sketch 43.1 (39012) - http://www.bohemiancoding.com/sketch -->
    <title>tiddlyfox-alert</title>
    <desc>Created with Sketch.</desc>
    <defs>
        <polygon id="path-1" points="64 110.036667 47.4355811 125.819253 40.9816667 103.868923 18.745166 109.254834 24.1310772 87.0183333 2.18074712 80.5644189 17.9633333 64 2.18074712 47.4355811 24.1310772 40.9816667 18.745166 18.745166 40.9816667 24.1310772 47.4355811 2.18074712 64 17.9633333 80.5644189 2.18074712 87.0183333 24.1310772 109.254834 18.745166 103.868923 40.9816667 125.819253 47.4355811 110.036667 64 125.819253 80.5644189 103.868923 87.0183333 109.254834 109.254834 87.0183333 103.868923 80.5644189 125.819253"></polygon>
        <filter x="-4.7%" y="-4.7%" width="109.4%" height="109.4%" filterUnits="objectBoundingBox" id="filter-2">
            <feOffset dx="-2" dy="-2" in="SourceAlpha" result="shadowOffsetOuter1"></feOffset>
            <feGaussianBlur stdDeviation="1" in="shadowOffsetOuter1" result="shadowBlurOuter1"></feGaussianBlur>
            <feColorMatrix values="0 0 0 0 0   0 0 0 0 0   0 0 0 0 0  0 0 0 0.5 0" type="matrix" in="shadowBlurOuter1" result="shadowMatrixOuter1"></feColorMatrix>
            <feOffset dx="2" dy="2" in="SourceAlpha" result="shadowOffsetOuter2"></feOffset>
            <feGaussianBlur stdDeviation="1" in="shadowOffsetOuter2" result="shadowBlurOuter2"></feGaussianBlur>
            <feColorMatrix values="0 0 0 0 1   0 0 0 0 1   0 0 0 0 1  0 0 0 0.5 0" type="matrix" in="shadowBlurOuter2" result="shadowMatrixOuter2"></feColorMatrix>
            <feMerge>
                <feMergeNode in="shadowMatrixOuter1"></feMergeNode>
                <feMergeNode in="shadowMatrixOuter2"></feMergeNode>
            </feMerge>
        </filter>
        <path d="M71.1381551,78.166103 C71.1407827,77.8546708 71.1434076,77.5062955 71.1458566,77.1291492 C71.1538749,75.8943113 71.1581823,74.6492237 71.1568117,73.483949 C71.1554242,72.3042484 71.1482318,71.2777294 71.1340393,70.4424469 C71.1417359,69.0853972 71.7290948,68.3551371 74.8612006,66.2066415 C74.9727966,66.1300912 75.9463089,65.4662012 76.246555,65.2591823 C79.3401452,63.1261598 81.2684846,61.4731148 83.0089649,59.0719899 C85.3485324,55.8443785 86.5666105,51.9950763 86.5666105,47.4235267 C86.5666105,34.13067 76.7068937,25.4710495 65.1117482,25.4710495 C54.0091768,25.4710495 42.6133552,35.0796107 41.0460699,47.7656478 C40.6382014,51.067048 42.9838722,54.0740044 46.2852724,54.481873 C49.5866725,54.8897415 52.593629,52.5440707 53.0014975,49.2426705 C53.8078243,42.71604 59.9734834,37.5173703 65.1117482,37.5173703 C70.3766671,37.5173703 74.5202897,41.1566431 74.5202897,47.4235267 C74.5202897,51.0573918 73.4192221,52.5763984 69.4085219,55.3417659 C69.1391602,55.52749 68.1824087,56.17995 68.0470124,56.2728263 C65.3648782,58.1126599 63.8197211,59.3713494 62.3462355,61.2033259 C60.2383615,63.8240343 59.1053205,66.9199196 59.0886524,70.5168623 C59.1023996,71.4088218 59.10918,72.3765465 59.1104992,73.4981176 C59.1118291,74.6288241 59.1076234,75.8445202 59.0997897,77.0509294 C59.0973934,77.4199737 59.0948269,77.7605858 59.092263,78.0644728 C59.0907316,78.2459888 59.0895366,78.3755199 59.0888842,78.4411872 C59.0558811,81.7675231 61.7256548,84.4908055 65.0519908,84.5238086 C68.3783267,84.5568117 71.101609,81.8870379 71.1346121,78.560702 C71.1353441,78.4868402 71.1365717,78.3537785 71.1381551,78.166103 Z" id="path-3"></path>
        <ellipse id="path-4" cx="65.5289505" cy="95" rx="7.52895052" ry="7.52895052"></ellipse>
    </defs>
    <g id="Page-1" stroke="none" stroke-width="1" fill="none" fill-rule="evenodd">
        <g id="Star-Copy-2">
            <use fill="black" fill-opacity="1" filter="url(#filter-2)" xlink:href="#path-1"></use>
            <use fill="#007DFF" fill-rule="evenodd" xlink:href="#path-1"></use>
        </g>
        <g id="Path-250-Copy">
            <use fill="#000000" fill-rule="evenodd" xlink:href="#path-3"></use>
            <path stroke="#FFFFFF" stroke-width="4" d="M73.138084,78.1829763 C73.1408432,77.8559339 73.1434521,77.5059339 73.1458144,77.1421358 C73.15427,75.8399584 73.1581296,74.6032817 73.1568103,73.4815967 C73.1553763,72.262382 73.1478196,71.2364786 73.1337507,70.4084693 C73.1368622,69.9503892 73.4284556,69.6147617 75.9925316,67.855911 C76.0246922,67.8338502 76.5704535,67.4611952 76.7208866,67.3584048 C76.7218088,67.3577746 76.7218088,67.3577746 76.7227311,67.3571444 C77.0390593,67.1409972 77.2620523,66.9883259 77.3818449,66.9057292 C80.8505967,64.5140337 82.8264733,62.7315244 84.6282932,60.2457768 C87.249334,56.6298517 88.5666105,52.35514 88.5666105,47.4235267 C88.5666105,33.5052733 78.3021229,23.4710495 65.1117482,23.4710495 C52.6341253,23.4710495 40.7066088,34.2017142 39.0611605,47.5204239 C38.5178586,51.9180593 41.6424131,55.9234804 46.0400485,56.4667823 C50.4376838,57.0100843 54.4431049,53.8855298 54.9864069,49.4878944 C55.6356492,44.2327494 60.7277075,39.5173703 65.1117482,39.5173703 C69.5235903,39.5173703 72.5202897,42.5125805 72.5202897,47.4235267 C72.5202897,50.2371714 71.8816932,51.2071941 68.273232,53.6952189 C68.1686316,53.7673406 67.9503629,53.9167272 67.6282371,54.1367981 C67.627507,54.1372968 67.627507,54.1372968 67.6267769,54.1377956 C67.1520451,54.4619952 66.965324,54.5895039 66.9156814,54.6235567 C63.9048944,56.6888326 62.3258,58.0376323 60.7877834,59.9498401 C58.3620977,62.9656819 57.107187,66.5124933 57.0886739,70.5075945 C57.102257,71.4149825 57.1091692,72.3684753 57.1105006,73.50047 C57.111769,74.5788773 57.1080231,75.7764766 57.0998319,77.0379429 C57.0975376,77.3912633 57.095006,77.7309238 57.0923342,78.0475995 C57.0902146,78.2927858 57.0902146,78.2927858 57.0889829,78.4213191 C57.0450208,82.8521957 60.6012972,86.4797483 65.0321482,86.5237101 C69.4629993,86.567672 73.0905519,83.0113956 73.1345137,78.5805445 C73.1358772,78.4383025 73.1358772,78.4383025 73.138084,78.1829763 L73.138084,78.1829763 Z"></path>
        </g>
        <g id="Oval-203-Copy">
            <use fill="#000000" fill-rule="evenodd" xlink:href="#path-4"></use>
            <ellipse stroke="#FFFFFF" stroke-width="4" cx="65.5289505" cy="95" rx="9.52895052" ry="9.52895052"></ellipse>
        </g>
    </g>
</svg>