<?xml version="1.0" encoding="UTF-8"?>
<svg width="128px" height="128px" viewBox="0 0 128 128" version="1.1" xmlns="http://www.w3.org/2000/svg" xmlns:xlink="http://www.w3.org/1999/xlink">
    <!-- Generator: Sketch 43.1 (39012) - http://www.bohemiancoding.com/sketch -->
    <title>tiddlyfox-disabled</title>
    <desc>Created with Sketch.</desc>
    <defs>
        <polygon id="path-1" points="64 110.036667 47.4355811 125.819253 40.9816667 103.868923 18.745166 109.254834 24.1310772 87.0183333 2.18074712 80.5644189 17.9633333 64 2.18074712 47.4355811 24.1310772 40.9816667 18.745166 18.745166 40.9816667 24.1310772 47.4355811 2.18074712 64 17.9633333 80.5644189 2.18074712 87.0183333 24.1310772 109.254834 18.745166 103.868923 40.9816667 125.819253 47.4355811 110.036667 64 125.819253 80.5644189 103.868923 87.0183333 109.254834 109.254834 87.0183333 103.868923 80.5644189 125.819253"></polygon>
        <filter x="-4.7%" y="-4.7%" width="109.4%" height="109.4%" filterUnits="objectBoundingBox" id="filter-2">
            <feOffset dx="-2" dy="-2" in="SourceAlpha" result="shadowOffsetOuter1"></feOffset>
            <feGaussianBlur stdDeviation="1" in="shadowOffsetOuter1" result="shadowBlurOuter1"></feGaussianBlur>
            <feColorMatrix values="0 0 0 0 0   0 0 0 0 0   0 0 0 0 0  0 0 0 0.5 0" type="matrix" in="shadowBlurOuter1" result="shadowMatrixOuter1"></feColorMatrix>
            <feOffset dx="2" dy="2" in="SourceAlpha" result="shadowOffsetOuter2"></feOffset>
            <feGaussianBlur stdDeviation="1" in="shadowOffsetOuter2" result="shadowBlurOuter2"></feGaussianBlur>
            <feColorMatrix values="0 0 0 0 1   0 0 0 0 1   0 0 0 0 1  0 0 0 0.5 0" type="matrix" in="shadowBlurOuter2" result="shadowMatrixOuter2"></feColorMatrix>
            <feMerge>
                <feMergeNode in="shadowMatrixOuter1"></feMergeNode>
                <feMergeNode in="shadowMatrixOuter2"></feMergeNode>
            </feMerge>
        </filter>
        <path d="M52.627417,64 L35.6568904,80.9705266 C32.5326761,84.0947409 32.539017,89.166434 35.6568542,92.2842712 C38.7810486,95.4084656 43.8449997,95.4098343 46.9705989,92.2842351 L63.9411255,75.3137085 L80.9116521,92.2842351 C84.0358664,95.4084494 89.1075595,95.4021085 92.2253967,92.2842712 C95.3495911,89.1600769 95.3509598,84.0961258 92.2253606,80.9705266 L75.254834,64 L92.2253606,47.0294734 C95.3495749,43.9052591 95.343234,38.833566 92.2253967,35.7157288 C89.1012024,32.5915344 84.0372513,32.5901657 80.9116521,35.7157649 L63.9411255,52.6862915 L46.9705989,35.7157649 C43.8463846,32.5915506 38.7746915,32.5978915 35.6568542,35.7157288 C32.5326599,38.8399231 32.5312912,43.9038742 35.6568904,47.0294734 L52.627417,64 Z" id="path-3"></path>
    </defs>
    <g id="Page-1" stroke="none" stroke-width="1" fill="none" fill-rule="evenodd">
        <g id="Star-Copy-3">
            <use fill="black" fill-opacity="1" filter="url(#filter-2)" xlink:href="#path-1"></use>
            <use fill="#FF4141" fill-rule="evenodd" xlink:href="#path-1"></use>
        </g>
        <g id="Combined-Shape">
            <use fill="#000000" fill-rule="evenodd" xlink:href="#path-3"></use>
            <path stroke="#FFFFFF" stroke-width="4" d="M49.7989899,64 L34.2426768,79.5563131 C30.3393641,83.4596258 30.3418028,89.797647 34.2426407,93.6984848 C38.1483105,97.6041546 44.4785914,97.6046697 48.3848124,93.6984487 L63.9411255,78.1421356 L79.4974386,93.6984487 C83.4007513,97.6017614 89.7387725,97.5993227 93.6396103,93.6984848 C97.5452801,89.792815 97.5457952,83.4625341 93.6395742,79.5563131 L78.0832611,64 L93.6395742,48.4436869 C97.5428869,44.5403742 97.5404482,38.202353 93.6396103,34.3015152 C89.7339405,30.3958454 83.4036596,30.3953303 79.4974386,34.3015513 L63.9411255,49.8578644 L48.3848124,34.3015513 C44.4814997,30.3982386 38.1434785,30.4006773 34.2426407,34.3015152 C30.3369709,38.207185 30.3364558,44.5374659 34.2426768,48.4436869 L49.7989899,64 Z"></path>
        </g>
    </g>
</svg>